<?xml version="1.0" encoding="UTF-8" standalone="no"?>
<!-- Created with Inkscape (http://www.inkscape.org/) -->

<svg
   xmlns:dc="http://purl.org/dc/elements/1.1/"
   xmlns:cc="http://creativecommons.org/ns#"
   xmlns:rdf="http://www.w3.org/1999/02/22-rdf-syntax-ns#"
   xmlns:svg="http://www.w3.org/2000/svg"
   xmlns="http://www.w3.org/2000/svg"
   xmlns:sodipodi="http://sodipodi.sourceforge.net/DTD/sodipodi-0.dtd"
   xmlns:inkscape="http://www.inkscape.org/namespaces/inkscape"
   width="744.09448819"
   height="1052.3622047"
   id="svg2"
   version="1.1"
   inkscape:version="0.47pre4 r22446"
   sodipodi:docname="android.svg"
   inkscape:export-filename="/home/coderjoe/local/projects/android.coderjoe.net/public/images/android.png"
   inkscape:export-xdpi="87.093781"
   inkscape:export-ydpi="87.093781">
  <defs
     id="defs4">
    <inkscape:perspective
       sodipodi:type="inkscape:persp3d"
       inkscape:vp_x="0 : 526.18109 : 1"
       inkscape:vp_y="0 : 1000 : 0"
       inkscape:vp_z="744.09448 : 526.18109 : 1"
       inkscape:persp3d-origin="372.04724 : 350.78739 : 1"
       id="perspective10" />
    <inkscape:perspective
       id="perspective2824"
       inkscape:persp3d-origin="0.5 : 0.33333333 : 1"
       inkscape:vp_z="1 : 0.5 : 1"
       inkscape:vp_y="0 : 1000 : 0"
       inkscape:vp_x="0 : 0.5 : 1"
       sodipodi:type="inkscape:persp3d" />
    <inkscape:perspective
       id="perspective2849"
       inkscape:persp3d-origin="0.5 : 0.33333333 : 1"
       inkscape:vp_z="1 : 0.5 : 1"
       inkscape:vp_y="0 : 1000 : 0"
       inkscape:vp_x="0 : 0.5 : 1"
       sodipodi:type="inkscape:persp3d" />
    <inkscape:perspective
       id="perspective2873"
       inkscape:persp3d-origin="0.5 : 0.33333333 : 1"
       inkscape:vp_z="1 : 0.5 : 1"
       inkscape:vp_y="0 : 1000 : 0"
       inkscape:vp_x="0 : 0.5 : 1"
       sodipodi:type="inkscape:persp3d" />
    <inkscape:perspective
       id="perspective2897"
       inkscape:persp3d-origin="0.5 : 0.33333333 : 1"
       inkscape:vp_z="1 : 0.5 : 1"
       inkscape:vp_y="0 : 1000 : 0"
       inkscape:vp_x="0 : 0.5 : 1"
       sodipodi:type="inkscape:persp3d" />
    <inkscape:perspective
       id="perspective3769"
       inkscape:persp3d-origin="0.5 : 0.33333333 : 1"
       inkscape:vp_z="1 : 0.5 : 1"
       inkscape:vp_y="0 : 1000 : 0"
       inkscape:vp_x="0 : 0.5 : 1"
       sodipodi:type="inkscape:persp3d" />
    <inkscape:perspective
       id="perspective3797"
       inkscape:persp3d-origin="0.5 : 0.33333333 : 1"
       inkscape:vp_z="1 : 0.5 : 1"
       inkscape:vp_y="0 : 1000 : 0"
       inkscape:vp_x="0 : 0.5 : 1"
       sodipodi:type="inkscape:persp3d" />
  </defs>
  <sodipodi:namedview
     id="base"
     pagecolor="#ffffff"
     bordercolor="#666666"
     borderopacity="1.0"
     inkscape:pageopacity="0.0"
     inkscape:pageshadow="2"
     inkscape:zoom="1"
     inkscape:cx="94.322864"
     inkscape:cy="664.3668"
     inkscape:document-units="px"
     inkscape:current-layer="layer4"
     showgrid="false"
     inkscape:window-width="1912"
     inkscape:window-height="1016"
     inkscape:window-x="0"
     inkscape:window-y="0"
     inkscape:window-maximized="1" />
  <metadata
     id="metadata7">
    <rdf:RDF>
      <cc:Work
         rdf:about="">
        <dc:format>image/svg+xml</dc:format>
        <dc:type
           rdf:resource="http://purl.org/dc/dcmitype/StillImage" />
        <dc:title></dc:title>
      </cc:Work>
    </rdf:RDF>
  </metadata>
  <g
     inkscape:groupmode="layer"
     id="layer2"
     inkscape:label="Android" />
  <g
     inkscape:label="Body"
     inkscape:groupmode="layer"
     id="layer1" />
  <g
     inkscape:groupmode="layer"
     id="layer4"
     inkscape:label="Eyes">
    <g
       id="g3818"
       transform="matrix(5.645378,0,0,5.645378,-1349.7937,-1619.4483)">
      <g
         transform="translate(0,-126)"
         style="fill:#a4c639;fill-opacity:1;stroke:#a4c639;stroke-opacity:1"
         id="g2924">
        <path
           style="fill:#a4c639;fill-opacity:1;stroke:#a4c639;stroke-width:1px;stroke-linecap:butt;stroke-linejoin:miter;stroke-opacity:1"
           d="m 252.85714,440.48718 46.78572,0 c 0,0 -0.76786,-20.5625 -22.72322,-20.66964 -22.32615,-0.10895 -23.96428,20.625 -24.0625,20.66964 z"
           id="path2833"
           sodipodi:nodetypes="ccsc" />
        <path
           sodipodi:nodetypes="cccsccsccccscccsc"
           style="fill:#a4c639;fill-opacity:1;stroke:#a4c639;stroke-width:1px;stroke-linecap:butt;stroke-linejoin:miter;stroke-opacity:1"
           d="m 252.5,443.73718 47.75,0 0,35.75 c 0,0 0.5,3.9375 -3.9375,3.9375 -4.4375,0 -5.5625,0 -5.5625,0 l 0,14.5625 c 0,0 -0.54784,2.90056 -5.02392,2.90056 -4.47608,0 -5.12141,-2.95685 -5.12141,-2.95685 l 0,-14.31871 -8.10467,0 0,14.25 c 0,0 0.19768,3.02556 -4.86991,3.02556 -5.06759,0 -4.83179,-3.07572 -4.83179,-3.07572 l 0,-14.07484 -6.2983,0 c 0,0 -4.1875,0.625 -4.1875,-4.1875 0,-4.8125 0.0625,-35.4375 0.1875,-35.8125 z"
           id="path2835" />
        <path
           style="fill:#a4c639;fill-opacity:1;stroke:#a4c639;stroke-width:1px;stroke-linecap:butt;stroke-linejoin:miter;stroke-opacity:1"
           d="m 240.3125,445.61218 c 0,0 0.0585,-2.875 4.5,-2.875 4.46558,0 4.5,2.875 4.5,2.875 l 0,26.8125 c 0,0 -0.14911,3.125 -4.53125,3.125 -4.4375,0 -4.53125,-3.125 -4.53125,-3.125 l 0.0625,-26.8125 z"
           id="path2863"
           sodipodi:nodetypes="ccccccc" />
        <path
           style="fill:#a4c639;fill-opacity:1;stroke:#a4c639;stroke-width:1px;stroke-linecap:butt;stroke-linejoin:miter;stroke-opacity:1"
           d="m 303.46875,445.58093 c 0,0 0.0585,-2.875 4.5,-2.875 4.46558,0 4.5,2.875 4.5,2.875 l 0,26.8125 c 0,0 -0.14911,3.125 -4.53125,3.125 -4.4375,0 -4.53125,-3.125 -4.53125,-3.125 l 0.0625,-26.8125 z"
           id="path2863-2"
           sodipodi:nodetypes="ccccccc" />
        <path
           style="fill:#a4c639;fill-opacity:1;stroke:#a4c639;stroke-width:2;stroke-linecap:round;stroke-linejoin:round;stroke-miterlimit:4;stroke-opacity:1;stroke-dasharray:none"
           d="m 261.375,414.42468 4.28722,7.42568 -4.28722,-7.42568 z"
           id="path2887" />
        <path
           style="fill:#a4c639;fill-opacity:1;stroke:#a4c639;stroke-width:2;stroke-linecap:round;stroke-linejoin:round;stroke-miterlimit:4;stroke-opacity:1;stroke-dasharray:none"
           d="m 291.45611,414.39934 -4.28722,7.42568 4.28722,-7.42568 z"
           id="path2887-0" />
      </g>
      <path
         transform="translate(0,-126)"
         d="m 268.1875,430.73718 c 0,1.41523 -1.28718,2.5625 -2.875,2.5625 -1.58782,0 -2.875,-1.14727 -2.875,-2.5625 0,-1.41523 1.28718,-2.5625 2.875,-2.5625 1.58782,0 2.875,1.14727 2.875,2.5625 z"
         sodipodi:ry="2.5625"
         sodipodi:rx="2.875"
         sodipodi:cy="430.73718"
         sodipodi:cx="265.3125"
         id="path2839"
         style="fill:#ffffff;fill-opacity:1;stroke:none"
         sodipodi:type="arc" />
      <path
         inkscape:label="#path2839-1"
         d="m 268.1875,430.73718 c 0,1.41523 -1.28718,2.5625 -2.875,2.5625 -1.58782,0 -2.875,-1.14727 -2.875,-2.5625 0,-1.41523 1.28718,-2.5625 2.875,-2.5625 1.58782,0 2.875,1.14727 2.875,2.5625 z"
         sodipodi:ry="2.5625"
         sodipodi:rx="2.875"
         sodipodi:cy="430.73718"
         sodipodi:cx="265.3125"
         id="eyes"
         style="fill:#ffffff;fill-opacity:1;stroke:none"
         sodipodi:type="arc"
         transform="translate(22.25,-126)">
        <title
           id="title3712">eyes</title>
      </path>
    </g>
  </g>
</svg>
